<?xml version="1.0" encoding="UTF-8"?>
<svg id="Capa_1" data-name="Capa 1" xmlns="http://www.w3.org/2000/svg" viewBox="0 0 135.52 112.82">
  <defs>
    <style>
      .cls-1 {
        fill: #775c3f;
        stroke-width: 0px;
      }
    </style>
  </defs>
  <path class="cls-1" d="M129.08,112.82H6.44c-.21-.07-.42-.16-.64-.2-2.87-.5-4.66-2.19-5.49-4.95-.11-.37-.21-.75-.31-1.12,0-28.91,0-57.82,0-86.73.07-.18.16-.36.2-.55.52-2.94,2.61-5.12,5.53-5.5,1.64-.21,3.32-.14,4.98-.15.5,0,.73-.15.7-.68-.03-.59,0-1.19,0-1.78.04-3.55,2.99-6.52,6.53-6.54,3.1-.02,6.21-.02,9.31,0,3.2.02,6.01,2.47,6.42,5.63.14,1.08.16,2.17.23,3.3.28.02.53.04.77.05,2.48,0,4.97-.02,7.45.02.7.01.94-.2.93-.91-.03-2.03-.04-4.06,0-6.1.06-3.07,2.06-5.56,5.03-6.33C48.44.2,48.78.1,49.13,0c12.42,0,24.85,0,37.27,0,.21.07.41.17.62.21,3.04.53,5.36,3.15,5.44,6.24.05,2.12.04,4.23.02,6.35,0,.62.2.83.84.82,2.57-.03,5.14-.01,7.71-.02.21,0,.43-.05.69-.08,0-.74-.01-1.41,0-2.09.07-3.94,2.98-6.8,6.9-6.81,2.94,0,5.87,0,8.81,0,3.26,0,5.94,2.18,6.55,5.38.17.88.18,1.8.14,2.69-.03.77.24.97.97.93,1.24-.05,2.48-.03,3.73-.01,3.06.06,5.65,2.12,6.42,5.08.1.38.2.75.3,1.13v86.73c-.07.18-.17.36-.2.54-.53,2.82-2.2,4.6-4.94,5.41-.43.13-.87.21-1.3.32ZM67.73,17.92c-20.07,0-40.15,0-60.22,0-2.26,0-3.12.86-3.12,3.13,0,4.63,0,9.26,0,13.89,0,1.25,0,1.26,1.25,1.26,11.01,0,22.02,0,33.03.01.76,0,1.32-.23,1.88-.73,9.65-8.51,20.84-11.91,33.58-10.03,7.91,1.17,14.8,4.61,20.74,9.95.63.57,1.26.82,2.11.82,10.93-.02,21.85-.02,32.78-.02.23,0,.45-.01.68,0,.5.02.69-.21.69-.71-.01-5,.02-9.99-.02-14.99-.01-1.63-1.02-2.52-2.65-2.57-.31,0-.62,0-.93,0-19.93,0-39.86,0-59.8,0ZM99.77,40.58c6.25,8.38,9.18,17.61,8.41,27.9-.77,10.29-5.08,18.95-12.53,26.36.6.03.89.05,1.19.06,11.07,0,22.14,0,33.2.02.87,0,1.09-.27,1.09-1.11-.02-17.39-.02-34.78-.02-52.18,0-1.12,0-1.14-1.13-1.14-9.68,0-19.37,0-29.05,0-.32,0-.65.05-1.17.09ZM35.75,40.58c-.54-.04-.89-.09-1.25-.09-9.62,0-19.25,0-28.87,0-1.23,0-1.24,0-1.24,1.2,0,17.36,0,34.71,0,52.07,0,1.13,0,1.14,1.12,1.14,11.06,0,22.13,0,33.19,0,.3,0,.59-.03,1.16-.07-7.45-7.4-11.76-16.07-12.53-26.35-.77-10.29,2.16-19.52,8.41-27.89ZM31.54,66.46c.49,20.72,19,37.54,40.72,34.9,18.43-2.24,33.91-19.2,31.46-40.28-2.15-18.48-18.96-33.82-39.83-31.62-19.32,2.04-32.91,18.71-32.35,37ZM67.76,108.43c1.5,0,2.99,0,4.49,0,18.57,0,37.15,0,55.72,0,2.32,0,3.15-.84,3.16-3.18,0-1.67-.03-3.33.02-5,.02-.79-.18-1.07-1.03-1.06-13.07.03-26.14.01-39.21.04-.47,0-1.01.16-1.41.41-8.07,5.01-16.8,7.08-26.25,6.05-6.13-.67-11.77-2.7-17.01-5.91-.54-.33-1.25-.54-1.88-.54-12.9-.03-25.8-.02-38.7-.02-.2,0-.4.02-.59,0-.46-.04-.67.15-.67.63.01,2.06-.05,4.12.03,6.18.06,1.47.98,2.3,2.45,2.4.37.03.73.01,1.1.01,19.93,0,39.86,0,59.79,0ZM88.14,13.57c0-2.42.07-4.73-.05-7.04-.03-.6-.55-1.31-1.06-1.69-.47-.35-1.22-.42-1.84-.42-11.6-.02-23.2-.02-34.81-.02-.23,0-.45,0-.68.02-1.51.15-2.33,1.05-2.33,2.57,0,1.58,0,3.16,0,4.74,0,.61,0,1.22,0,1.85h40.77ZM22.46,13.61c1.69,0,3.39,0,5.08,0q2.04,0,1.94-2.06c-.09-1.73-1.01-2.62-2.75-2.62-2.4,0-4.8.08-7.2-.02-3.47-.15-3.97,1.19-3.84,4.01.03.57.23.71.76.71,2-.02,4.01,0,6.01,0ZM112.95,13.61c1.58,0,3.16,0,4.74,0q2.19,0,2.12-2.2c-.05-1.46-1.01-2.46-2.45-2.47-2.96-.02-5.93-.02-8.89,0-1.26,0-2.14.77-2.34,2.01-.1.61-.05,1.24-.1,1.85-.05.61.19.84.83.83,2.03-.04,4.06-.01,6.1-.01Z"/>
  <path class="cls-1" d="M112.88,33.73c-3.55,0-7.11,0-10.66,0-2.04,0-2.73-.71-2.73-2.76,0-2.71,0-5.42,0-8.12,0-1.59.87-2.46,2.45-2.46,7.33,0,14.67,0,22,0,1.56,0,2.4.83,2.41,2.4.02,2.85.02,5.7,0,8.55,0,1.65-.76,2.38-2.48,2.39-3.67.02-7.33,0-11,0ZM122.03,29.37c0-1.3-.04-2.51.02-3.72.04-.75-.2-.97-.95-.96-3.07.04-6.14.02-9.22.02-2.4,0-4.79.02-7.19-.01-.7,0-.95.23-.91.93.05.87.01,1.75.01,2.62,0,1.18,0,1.19,1.21,1.19,5.3,0,10.6,0,15.9,0,.33,0,.67-.03,1.13-.06Z"/>
  <path class="cls-1" d="M67.75,96.9c-17.35.1-31.5-14.25-31.51-31.45,0-16.88,13.73-31.56,31.66-31.49,17.79.07,31.4,14.71,31.38,31.52-.02,17.22-14.21,31.56-31.53,31.43ZM67.79,92.57c14.94.11,27.22-12.34,27.16-27.25-.05-14.2-11.54-27.06-27.22-27.05-15.63.02-27.27,12.9-27.16,27.36.11,14.76,12.34,27.07,27.22,26.94Z"/>
  <path class="cls-1" d="M67.79,55.13c.65-.76,1.08-1.36,1.61-1.86,3.18-3.05,6.96-4.02,11.15-2.81,4.23,1.23,6.85,4.18,7.75,8.47.8,3.78-.19,7.21-2.9,9.97-5.25,5.36-10.6,10.63-15.91,15.93-1.15,1.15-2.31,1.13-3.47-.03-5.29-5.28-10.64-10.51-15.85-15.87-3.16-3.25-4.01-7.2-2.51-11.49,1.49-4.26,4.65-6.75,9.09-7.36,3.5-.48,6.64.56,9.23,3.04.57.54,1.06,1.17,1.81,2.02ZM67.72,80.34c.14-.08.23-.11.29-.16,4.83-4.83,9.68-9.63,14.47-14.5,1.32-1.34,1.88-3.1,1.71-4.97-.26-2.89-1.75-5-4.51-5.98-2.74-.98-5.22-.33-7.31,1.69-.93.9-1.84,1.83-2.76,2.75-1.28,1.27-2.39,1.27-3.66.02-1-.99-1.98-2.02-3-2.98-2.43-2.29-6.04-2.55-8.71-.66-3.55,2.51-3.92,7.42-.75,10.61,4.55,4.58,9.14,9.14,13.71,13.7.16.16.33.3.53.48Z"/>
</svg>