<?xml version="1.0" encoding="UTF-8"?>
<svg id="Capa_1" data-name="Capa 1" xmlns="http://www.w3.org/2000/svg" viewBox="0 0 182.72 95.49">
  <defs>
    <style>
      .cls-1 {
        fill: #ffffff;
        stroke-width: 0px;
      }
    </style>
  </defs>
  <path class="cls-1" d="M182.72,73.02c-1.02,1.38-2.64,1.38-4.08,1.73-8.31,2.03-16.63,4.06-24.96,5.99-2.77.64-5.63.93-8.42,1.5-4.62.94-9.23,1.95-13.83,2.98-2.45.55-4.87,1.18-7.3,1.81-1.62.43-2.4.07-3.11-1.44-.32-.68-.31-1.77-1.36-1.75-1.01.02-1.14,1.03-1.38,1.76-.49,1.48-.9,2.98-1.29,4.49-.54,2.12-1.05,2.51-3.19,2.11-4.3-.81-8.61-1.55-12.87-2.54-6.11-1.42-12.22-2.9-18.25-4.59-4.64-1.31-9.16-3.06-13.78-4.46-1.09-.33-2.45-.31-3.54.04-4.93,1.57-9.76,3.5-14.72,4.94-8.4,2.44-16.44,5.78-24.42,9.29-.35.15-.69.34-1.05.46-1.22.39-2.19.08-2.63-1.11-1.24-3.35-2.53-6.7-3.48-10.13-1.28-4.62-2.46-9.24-4.35-13.69-1.57-3.7-2.55-7.65-3.95-11.43-1.19-3.2-2.84-6.25-3.84-9.5-1.58-5.16-2.75-10.44-4.18-15.65-.74-2.71-1.63-5.38-2.55-8.03-.4-1.16-.09-2.01.84-2.56,2.45-1.46,4.91-2.91,7.45-4.21,1.58-.82,3.39-1.22,4.95-2.07,4.96-2.7,10.35-4.23,15.67-5.94C40.17,7.45,51.25,3.89,62.34.34c2.38-.76,3.09-.32,3.94,2.02.38,1.06.94,2.07,1.53,3.04.22.35.85.77,1.15.68.46-.13.89-.63,1.16-1.07.29-.47.46-1.05.57-1.61.25-1.21,1.08-1.61,2.19-1.82,3.32-.62,6.5.23,9.73.75,6.82,1.11,13.49,2.79,20.08,4.78,1.67.51,3.34,1.09,4.94,1.79,3.01,1.32,6.01,1.41,9.22.68,4.59-1.05,9.25-1.88,13.9-2.62,5.07-.81,10.19-1.35,15.26-2.16,3.11-.5,6.17-1.37,9.27-1.91,2.66-.46,5.35-.83,8.04-1,3.05-.2,4.7,1.02,5.55,3.97.55,1.9.81,3.87,1.28,5.79.65,2.66,1.68,5.26,2.03,7.96,1.43,11.18,5.08,21.85,7.26,32.86.4,2.01.56,4.08.65,6.12.18,3.95,1,7.77,2.03,11.56.2.73.4,1.46.61,2.19v.69ZM163.7,20.91s.08-.03.12-.04c.86,2.35,1.78,4.68,2.56,7.06,1.56,4.81,3.04,9.65,4.55,14.48.15.47.22.96.29,1.45.47,3.27.85,6.56,1.42,9.81.35,1.99.86,3.89.27,5.96-.3,1.03-.72,1.8-1.69,2.08-1.82.53-3.66,1.17-5.52,1.32-6.7.56-13.25,2.02-19.76,3.51-7.23,1.65-14.3,3.95-21.46,5.89-2.42.66-4.12,1.89-4.64,4.45-.04.22-.24.41-.26.63-.06.8-.32,1.71-.04,2.39.54,1.33,1.34,2.56,2.13,3.78.56.88,1.42,1.18,2.49.95,1.86-.41,3.73-.72,5.59-1.14,4.31-.96,8.6-2.01,12.91-2.92,3.68-.78,7.39-1.38,11.08-2.15,5.84-1.22,11.67-2.5,17.51-3.76,2.15-.46,4.32-.86,6.44-1.45,1.25-.35,1.61-1.25,1.36-2.52-.09-.45-.19-.89-.26-1.34-.56-3.64-1.39-7.27-1.61-10.93-.24-4.06-.82-8-1.84-11.93-1.24-4.79-2.48-9.58-3.48-14.42-.94-4.54-1.55-9.15-2.33-13.72-.6-3.48-1.25-6.96-1.89-10.43-.48-2.57-1.23-3.33-3.86-3.16-3.18.2-6.36.55-9.51,1.06-3.45.56-6.84,1.52-10.3,2.03-6.55.97-13.14,1.7-19.69,2.62-.96.13-1.9.69-2.75,1.21-.48.29-.77.91-1.2,1.45,1.45.81,3.07,1.13,4.88.76,2.61-.52,5.24-.94,7.87-1.32,2.07-.29,4.16-.42,6.23-.68,1.17-.15,2.31-.46,3.47-.66,4.88-.83,9.76-1.61,14.63-2.46,2.37-.41,3.57.77,3.16,2.92-1.25,0-2.45-.12-3.63.03-2.23.27-4.43.76-6.65,1.02-2,.23-4.02.24-6.03.43-1.97.19-3.93.48-5.89.71-1.21.14-2.44.18-3.63.44-.43.09-.76.68-1.14,1.05.35.3.66.72,1.07.89.51.21,1.11.22,1.67.33,1.67.35,1.76.49,1.32,2.11-1.22,4.48-2.53,8.93-3.67,13.43-1,3.94-1.61,7.99-2.78,11.88-1.71,5.68-3.85,11.23-5.62,16.89-.7,2.23-.99,4.59-1.33,6.91-.16,1.1.45,1.7,1.55,1.6,1.43-.13,2.9-.29,4.25-.74,8.38-2.82,16.83-5.35,25.55-6.9,2.69-.48,5.4-1.12,8.11-1.13,2.04,0,4.01-.05,5.97-.57,2.26-.6,2.92-1.58,2.44-3.92-.38-1.86-.91-3.7-1.24-5.57-.43-2.43-.52-4.94-1.13-7.32-1.92-7.47-4.02-14.89-6.05-22.33ZM86.07,67.09c-.21-.79-.44-1.87-.76-2.93-3.84-12.48-7.85-24.9-12.46-37.13-2.6-6.9-4.86-13.94-7.37-20.88-1.24-3.43-1.77-3.71-5.26-2.69-7.89,2.29-15.77,4.63-23.61,7.1-5,1.58-10.01,3.23-14.85,5.23-5.35,2.21-10.52,4.85-15.76,7.31-.41.19-.8.44-1.17.71-1.23.87-1.44,1.59-.95,3.05.57,1.7,1.18,3.38,1.69,5.09,1.78,6.01,3.44,12.07,5.32,18.05,1.25,3.95,2.85,7.79,4.22,11.7.89,2.55,1.65,5.14,2.48,7.71,1.35,4.16,2.72,8.31,4.05,12.47.82,2.57,1.5,5.19,2.38,7.74.65,1.9,1.45,2.14,3.23,1.3,1.17-.55,2.35-1.08,3.54-1.6,11.47-5.01,23.58-8.2,35.28-12.55,5.78-2.15,11.68-3.97,17.51-5.97,1.7-.58,2.53-1.8,2.51-3.72ZM74.58,21.19c.12.62.21,1.18.35,1.73.54,2.02,1.07,4.04,1.65,6.05.6,2.12.93,4.39,1.94,6.29,1.93,3.59,2.93,7.52,4.56,11.17,2.97,6.63,4.24,13.82,7.3,20.37.35.74,1.01,1.51,1.72,1.87,1.69.85,3.46,1.66,5.29,2.11,3.69.92,7.43,1.6,11.16,2.36,3.57.73,4.17.33,5.3-3.12.89-2.71,1.93-5.36,2.86-8.05.39-1.11.76-2.24,1-3.39.28-1.37.36-2.79.62-4.17.66-3.53,1.83-6.88,3.18-10.22,1.63-4.01,2.8-8.2,4.25-12.28.6-1.68,1.52-3.24,2.13-4.92.59-1.62-.09-2.8-1.7-3.28-3.72-1.1-7.43-2.25-11.18-3.23-5.53-1.44-11.04-2.91-16.1-5.7-.63-.34-1.33-.58-2.03-.74-2.56-.58-5.14-1.04-7.68-1.68-2.8-.7-5.55-1.6-8.35-2.31-1.92-.49-3.2.29-3.79,2.15-.68,2.14-1.34,4.28-1.97,6.44-.24.84-.35,1.71-.51,2.53ZM76.74,3.31c-3.07-.01-3.96.7-4.36,2.75-.06.3-.1.6-.13.9-.17,1.63-.25,3.27-.53,4.88-.25,1.45-.21,2.75.62,4.05.63.99,1.25,1.12,1.94.13.28-.4.45-.88.67-1.32.61-1.27,1.18-2.56,1.83-3.81.6-1.17,1.66-1.67,2.92-1.67.68,0,1.36.16,2.03.29,3.25.61,6.48,1.43,9.76,1.81,4.26.5,8.25,1.71,12.14,3.45,1.35.6,2.76,1.1,4.19,1.51,6.77,1.92,13.55,3.81,20.34,5.69,1.67.46,2.12.92,2.03,2.62-.06.97-.28,1.95-.56,2.89-.99,3.39-2.06,6.77-3.07,10.16-.8,2.69-1.39,5.46-2.37,8.09-1.35,3.61-2.85,7.17-3.27,11.02-.33,3.01-1.15,5.79-2.53,8.47-.69,1.34-1.05,2.85-1.52,4.3-.47,1.45-.76,2.96-1.33,4.36-.97,2.41-3.23,3.41-5.68,2.71-1.17-.34-2.33-.7-3.52-.98-4.59-1.09-9.25-1.88-13.55-3.99-1.28-.63-2.08-.25-2.97.91-.3.39-.53.87-.91,1.17-.45.37-1.01.81-1.54.84-4.28.23-8,2.36-12.03,3.45-.14.04-.27.14-.39.23-.65.5-.61,1.27.1,1.66.33.18.71.28,1.08.37,8.85,2.36,17.7,4.75,26.57,7.05,3.01.78,6.09,1.3,9.13,1.99,1.68.38,2.85-.28,3.18-2.02.81-4.19,1.71-8.33,3.16-12.37,1.13-3.14,2-6.39,2.77-9.64,1.49-6.23,3.24-12.36,5.54-18.34,1.14-2.97,2.23-5.99,3.1-9.05,1.52-5.37,2.37-10.93,5.05-15.94.62-1.17-.06-2.51-1.36-2.92-1.63-.51-3.28-1-4.94-1.41-7.84-1.9-15.62-3.86-23.18-6.82-7.07-2.78-14.52-4.55-21.98-6.09-2.45-.51-4.9-1.04-6.41-1.37Z"/>
  <path class="cls-1" d="M143.22,46.39c.23-.63.35-1.24.65-1.75,1.42-2.46,4.13-3.76,6.92-3.36.49.07.99.09,1.47.22,1.78.49,3.16-.01,4.54-1.28,2.64-2.43,6.76-1,7.48,2.5.28,1.38-.29,2.58-1.16,3.57-1.49,1.68-3.1,3.26-4.59,4.94-1.05,1.19-2.02,2.47-2.96,3.75-.46.63-.99,1.01-1.73.72-3.98-1.53-7.49-3.72-9.85-7.41-.35-.55-.5-1.24-.75-1.9ZM146.45,46.81c.05.16.09.61.33.93,1.42,1.91,3.05,3.61,5.25,4.63,1.34.62,2.13.44,3.18-.64,1.7-1.75,3.4-3.49,5.04-5.3.66-.72,1.23-1.56,1.7-2.42.6-1.1.14-2.23-1.02-2.7-1.1-.45-2.23-.35-2.89.63-.67,1-1.13,2.19-1.47,3.36-.28.95-.77,1.32-1.6.79-.35-.22-.61-.61-.97-.79-1.14-.57-2.26-1.29-3.47-1.56-2.02-.45-4.08,1.1-4.08,3.07Z"/>
  <path class="cls-1" d="M155.13,26.83c.12,2.85-1.25,5.07-3.08,7.03-.81.87-1.87,1.12-3.03.57-2.63-1.24-5.25-2.48-6.95-5-1.17-1.74-.36-3.62,1.75-3.98.6-.1,1.22-.12,1.82-.08,1.65.1,3.15-.17,4.48-1.28.99-.83,2.2-1.13,3.41-.46,1.24.68,1.51,1.93,1.6,3.21ZM148.21,28.99c-.68-.45-1.29-.77-1.81-1.21-.7-.58-1.3-.37-1.78.2-.56.65-.16,1.27.36,1.67.87.67,1.79,1.3,2.75,1.83,2.69,1.49,3.66,1.21,5.13-1.47.29-.52.49-1.11.63-1.69.32-1.32,0-2.28-.84-2.7-.85-.43-1.91-.01-2.74,1.07-.57.75-1.13,1.5-1.72,2.29Z"/>
  <path class="cls-1" d="M78.39,57.08c0,1.25-.38,2-1.46,2.37-4.64,1.61-9.27,3.25-13.89,4.9-5.13,1.83-10.22,3.75-15.38,5.49-5.95,2-11.96,3.83-17.94,5.74-.65.21-1.28.49-1.91.75-1.48.58-2.32.27-2.86-1.26-.9-2.58-1.68-5.2-2.56-7.79-.84-2.45-1.76-4.86-2.61-7.3-1.04-2.98-1.95-6.02-3.09-8.96-.45-1.16-1.37-2.15-2.08-3.21-.27-.4-.65-.77-.81-1.21-.71-1.93-1.33-3.89-2.04-5.81-1.26-3.39-2.5-6.78-3.88-10.12-.85-2.04-.73-2.69,1.08-4.05,4.62-3.47,10-5.3,15.38-7.15,10.15-3.49,20.28-7.03,30.42-10.56,1.33-.46,2.63-1.01,3.97-1.44,1.63-.52,2.52.18,2.76,1.86.19,1.34.43,2.72.92,3.97,3.25,8.38,6.7,16.68,9.84,25.1,2.2,5.88,4.03,11.89,6.02,17.84.11.32.11.67.14.83ZM75.49,54.71c-.03-.18-.04-.57-.15-.93-1.4-4.51-2.54-9.12-4.27-13.5-3.41-8.65-6.79-17.3-9.36-26.24-.22-.75-.63-1.47-1.07-2.13-1.03-1.54-1.97-1.78-3.71-1.14-2.29.84-4.57,1.68-6.87,2.48-7.65,2.68-15.29,5.4-22.97,8.01-4.83,1.64-9.74,3.04-14.15,5.74-1.68,1.03-2.14,2.28-1.11,3.98,1.52,2.5,2.55,5.18,3.2,8.03.38,1.66.79,3.34,1.4,4.93,1.32,3.45,2.85,6.81,4.17,10.26,1.67,4.37,3.2,8.79,4.81,13.19.4,1.1.77,2.24,1.34,3.25,1.07,1.9,2.13,2.3,4.19,1.62,5.17-1.71,10.42-3.24,15.45-5.29,8.77-3.57,17.92-5.92,26.83-9.05,1.57-.55,2.22-1.32,2.28-3.22Z"/>
  <path class="cls-1" d="M89.03,29.98c1.89-.18,3.71.71,5.43,1.65,2.18,1.19,4.15,1.13,6.39.08,1.57-.73,3.42-1.03,5.17-1.2,2.45-.24,4.31,1,5.71,2.96.8,1.13.88,2.3.21,3.54-2.47,4.56-6.18,7.78-10.79,10.06-1.74.86-3.44,1.8-5.14,2.73-.96.52-2.66.38-3.42-.4-2.26-2.33-4.52-4.65-6.73-7.02-1.78-1.91-2.88-4.32-2.84-6.83.06-3.14,1.92-5.89,6-5.58ZM85.73,36.06c-.1.04-.2.08-.3.12.47,1.17.73,2.51,1.46,3.48,1.59,2.12,3.46,4.04,5.16,6.09,1.24,1.49,2.92,1.87,4.63.95,1.34-.72,2.69-1.42,4.05-2.12,3.58-1.85,6.66-4.29,8.97-7.62,1.32-1.9.47-3.98-1.8-4.36-3.27-.54-6.01.44-8.1,3.06-.98,1.23-1.73,1.16-2.77.03-.75-.82-1.67-1.53-2.64-2.07-.98-.55-2.13-.81-3.18-1.24-3.22-1.31-5.47.19-5.48,3.66Z"/>
  <path class="cls-1" d="M99.56,54.54c1.85.39,3.39-.25,4.94-1.22,3.03-1.9,5.41.25,6.09,3.12.21.89-.44,2.05-.84,3.02-.97,2.31-2.41,4.31-4.2,6.08-.67.66-1.39.76-2.19.46-3.1-1.17-5.9-2.89-8.34-5.1-1.18-1.07-1.64-2.58-1.11-4.18.53-1.57,1.94-1.95,3.36-2.15.75-.11,1.52-.02,2.29-.02ZM108.08,56.93c-.55-.66-.96-1.39-1.59-1.84-.74-.54-1.21.19-1.68.69-.93,1-1.89,1.41-3.33.77-1.38-.61-2.91-.74-4.43-.1-1.56.66-1.89,1.71-.79,3.01,1.46,1.72,3.26,2.96,5.35,3.8,1.24.49,2.31.31,3.19-.67.61-.68,1.22-1.38,1.67-2.17.59-1.05,1.02-2.18,1.62-3.49Z"/>
  <path class="cls-1" d="M84.17,16.49c.26.05.74.12,1.22.24.88.23,1.24.99.72,1.73-.97,1.36-1.99,2.69-3.09,3.94-.24.27-.98.31-1.38.16-.84-.32-1.61-.84-2.41-1.27-1.27-.69-1.76-1.61-1.33-2.88.35-1.05,1.22-1.4,2.32-1.45,1.24-.05,2.48-.28,3.96-.46ZM82.41,20.19c0-.15.01-.3.02-.45-.51-.3-1-.75-1.54-.84-.29-.05-.68.51-1.03.8.52.37,1,.83,1.57,1.06.22.09.65-.37.99-.58Z"/>
  <path class="cls-1" d="M35.89,33.95c1.46.23,2.93.38,4.36.7,1.08.25,1.95.01,2.5-.87,1.55-2.46,3.73-4.12,6.35-5.23,4.01-1.7,8-1.27,10.34,2.8.35.6.6,1.36.6,2.04,0,3.67-.62,7.13-2.75,10.31-2.25,3.35-4.14,6.93-6.24,10.38-.43.7-1.02,1.33-1.64,1.87-.79.69-1.66.77-2.75.42-2.64-.84-5.35-1.45-8.02-2.2-3.26-.91-6.25-2.41-9.09-4.22-2.48-1.58-3.75-3.93-4.13-6.8-.03-.23-.01-.46-.05-.68-.6-3.34.11-4.92,3.03-6.64,2.31-1.36,4.81-1.87,7.5-1.87ZM57.95,35.67c.56-3.65-3.48-6.97-7.53-4.65-.93.53-1.9.98-2.78,1.58-2.31,1.56-3.18,2.91-2.2,5.42.16.41.05,1.32-.13,1.38-.49.16-1.15.12-1.63-.09-1.63-.71-3.15-1.74-4.83-2.27-2.47-.78-5.01-.12-7.43.46-2.25.53-3.79,2.53-3.81,4.49-.02,2.04.62,3.87,2.3,5.13,1.4,1.05,2.85,2.04,4.37,2.92,3.23,1.87,6.82,2.79,10.36,3.84,2.86.85,3.57.63,5.1-1.84,2.15-3.47,4.3-6.93,6.48-10.38,1.15-1.82,1.77-3.78,1.74-5.98Z"/>
</svg>