<?xml version="1.0" encoding="UTF-8"?>
<svg id="Capa_1" data-name="Capa 1" xmlns="http://www.w3.org/2000/svg" viewBox="0 0 112.89 131.41">
  <defs>
    <style>
      .cls-1 {
        fill: #ffffff;
        stroke-width: 0px;
      }
    </style>
  </defs>
  <path class="cls-1" d="M112.48,1.1L112.89,0c-.14.37-.41.73-.41,1.1Z"/>
  <path class="cls-1" d="M112.46,34.42c-14.46-7.35-28.72-14.6-43.13-21.92-2.21,18.68-4.4,37.16-6.59,55.63-.91,0-1.69-.02-2.47,0-5.93.18-11.87,4.66-13.44,10.13-1.51,5.28,1.55,10.14,6.95,11.08,2.69.47,5.28.1,7.74-1.03,4.97-2.27,8.25-5.87,8.9-11.52,1.43-12.3,2.9-24.6,4.35-36.9.24-2,.49-4.01.74-6.1.32.14.52.2.7.3,8.41,4.47,16.82,8.96,25.25,13.4.72.38.7.84.62,1.48-1.13,9.43-2.24,18.85-3.36,28.28-.25,2.11-.51,4.23-.77,6.38-.47-.02-.82-.04-1.18-.05-6.37-.28-12.88,4.17-14.61,10-1.31,4.42.43,8.52,4.44,10.42,2.17,1.03,4.46,1.18,6.8.79,5.62-.92,11.81-5.73,12.29-12.75.3-4.3.98-8.58,1.48-12.87,1.4-11.84,2.8-23.67,4.2-35.51.26-2.21.54-4.42.81-6.64l.28-2.6h-.03Z"/>
  <path class="cls-1" d="M25.46,53.96c-1.63-.81-3.26-1.62-4.87-2.47-1.78-.95-3.1-2.32-3.95-4.21-.64-1.42-1.41-2.82-2.3-4.1-2.12-3.03-6.15-3.13-8.53-.29-1.48,1.78-1.79,3.81-1.27,6.04,3.55,15.55,7.09,31.1,10.63,46.65.41,1.8.8,3.6,1.22,5.46-.43.09-.73.17-1.04.23C6.76,102.98-.25,111.77,0,120.5c.2,6.71,5.26,11.36,11.95,10.87,5.12-.37,9.12-2.95,12.32-6.78,3.72-4.46,5.64-9.53,4.33-15.4-3.1-13.86-6.29-27.7-9.44-41.54-.34-1.48-.66-2.97-1.07-4.83,2.6,1.12,4.98,1.97,7.2,3.13,4.75,2.47,7.92,6.24,8.9,11.64.48,2.66.35,5.33-.09,7.99-.3,1.83.72,3.38,2.37,3.78,1.63.39,3.29-.46,3.8-2.15,2.1-6.98,2.17-13.87-1.23-20.51-3-5.86-7.79-9.84-13.58-12.74Z"/>
  <path class="cls-1" d="M50.31,25.78c-.54,1.02-.27,1.98.55,2.42.82.44,1.68.14,2.36-.83,3.72-5.31,3.57-11.49-.44-16.57-.86-1.09-1.85-2.07-2.84-3.05-1.1-1.1-1.84-2.33-1.92-3.93-.04-.7-.22-1.41-.45-2.08-.41-1.2-1.39-1.8-2.65-1.74-1.56.07-2.78,1.32-2.97,3.12-.71,6.56-1.4,13.12-2.1,19.68-.27,2.51-.53,5.03-.8,7.58-.6,0-1.03,0-1.45,0-4.09-.07-8.17,2.62-9.59,6.34-1.45,3.8.57,7.35,4.57,7.99,5.11.83,10.56-3.36,11.09-8.51.8-7.66,1.61-15.32,2.42-22.99.03-.25.13-.5.2-.78,5.18,3.45,6.88,7.99,4.02,13.35Z"/>
</svg>