<?xml version="1.0" encoding="UTF-8"?>
<svg id="Capa_1" data-name="Capa 1" xmlns="http://www.w3.org/2000/svg" viewBox="0 0 115.9 75.4">
  <defs>
    <style>
      .cls-1 {
        fill: #ffffff;
        stroke-width: 0px;
      }
    </style>
  </defs>
  <path class="cls-1" d="M0,59.32c2.95-5.41,7.64-8.22,13.41-10.16,13.24-4.46,26.27-9.54,39.46-14.15,3.14-1.1,4.86-2.5,4.22-6.02-.57-3.17.9-4.3,4.08-4.66,5.01-.58,8.64-5.03,8.82-9.94.16-4.74-3.04-9.28-7.52-10.67-4.7-1.46-9.88.52-12.46,4.94-1.54,2.63-2.7,5.63-7.35,4.56,2.99-3.64,5.23-7.31,8.35-9.93,4.2-3.53,9.31-4.43,14.44-1.6,5.12,2.84,7.8,7.33,7.41,13.17-.38,5.61-3.34,9.67-8.72,11.72-1.21.46-2.49.76-3.65,1.11-1.58,4.46.47,6.22,4.43,7.62,13.96,4.94,27.82,10.14,41.66,15.41,9.09,3.46,12.29,13.38,6.2,20.11-2.09,2.31-5.87,4.3-8.9,4.33-30.66.31-61.33.14-92,.23-6.47.02-9.1-4.49-11.88-9.06v-7.01ZM58.03,72.84c13.84,0,27.68.02,41.53,0,8.26-.01,12.38-2.68,13.24-8.48.8-5.36-2.29-9.1-9.88-11.9-9.99-3.7-20.27-6.78-29.89-11.27-9.91-4.63-18.88-4.66-28.89-.14-10.89,4.92-22.5,8.22-33.72,12.45-7.18,2.71-9.57,9.59-5.61,15.22,2.5,3.55,6.21,4.14,10.18,4.14,14.34-.02,28.69,0,43.03,0Z"/>
</svg>