<?xml version="1.0" encoding="UTF-8"?>
<svg id="Capa_1" data-name="Capa 1" xmlns="http://www.w3.org/2000/svg" viewBox="0 0 162.56 170.04">
  <defs>
    <style>
      .cls-1 {
        fill: #070566;
        stroke-width: 0px;
      }
    </style>
  </defs>
  <path class="cls-1" d="M138.41,36.76c.21,0,.63,0,1.04,0,4.41,0,8.82,0,13.23,0,3.5,0,6.44,1.14,8.44,4.17.96,1.45,1.45,3.06,1.45,4.81,0,10.64,0,21.28,0,31.92,0,2.14-1.14,3.25-3.31,3.26-1.59,0-3.17.02-4.76,0-.7-.01-1,.26-.96.95.02.39,0,.77,0,1.16,0,25.84-.01,51.68,0,77.53,0,4-1.68,6.95-5.3,8.62-1.19.55-2.6.84-3.91.84-42.04.04-84.08.04-126.12.03-5.83,0-9.23-4.79-9.21-9.4.09-25.84.04-51.68.04-77.53,0-.23-.03-.47,0-.7.15-1.13-.23-1.61-1.46-1.53-1.5.11-3.02.04-4.52.02-1.87-.02-3.04-1.18-3.04-3.05,0-10.83-.03-21.66.01-32.5.02-4.2,3.64-8.21,7.81-8.39,5.06-.22,10.13-.15,15.19-.21.45,0,.89,0,1.54,0-1.43-3.35-1.49-6.67-1.31-9.99.32-5.96,1.28-11.82,3.33-17.44,1.45-3.97,3.87-7.14,8.04-8.58,3.13-1.08,6.32-.88,9.48-.15,6.5,1.49,12.28,4.61,17.73,8.31,3.67,2.49,7.15,5.28,10.67,7.99.61.47,1.03.48,1.74.24,1.18-.41,2.45-.77,3.69-.8,2.85-.05,5.71.08,8.56.2.6.03,1.26.19,1.76.51.84.54,1.35.23,2.01-.32,6.58-5.5,13.53-10.44,21.44-13.87,3.88-1.69,7.88-2.94,12.19-2.82,4.31.13,7.73,1.92,10.17,5.5,1.96,2.87,2.85,6.15,3.6,9.47,1.09,4.83,1.88,9.72,1.66,14.69-.1,2.32-.58,4.63-.9,7.06ZM66.41,164.17c0-.54,0-.89,0-1.23,0-26.92,0-53.83.02-80.75,0-1.02-.28-1.3-1.3-1.3-16.35.03-32.71.03-49.07,0-1.03,0-1.32.33-1.32,1.33.02,26.03.01,52.06.02,78.08,0,2.68,1.24,3.87,3.93,3.87,15.43,0,30.85,0,46.28,0h1.43ZM96.14,164.17h1.57c15.36,0,30.71,0,46.07,0,2.83,0,4-1.15,4-4.03,0-25.92,0-51.84.03-77.76,0-1.17-.34-1.5-1.51-1.49-16.21.04-32.41.03-48.62.03q-1.52,0-1.52,1.5c0,26.73,0,53.47,0,80.2,0,.46,0,.91,0,1.56ZM5.91,75.05c.51,0,.93,0,1.35,0,17.91,0,35.81-.01,53.72.03,1.19,0,1.48-.34,1.48-1.5-.04-9.75-.02-19.5-.03-29.25q0-1.71-1.7-1.71c-16.09,0-32.18,0-48.27,0-1.08,0-2.17-.02-3.25,0-1.98.05-3.17,1.16-3.35,3.11-.04.46-.06.93-.06,1.39,0,8.78,0,17.56,0,26.34,0,.49.07.98.11,1.58ZM156.7,75.05v-1.14c0-9.21,0-18.41,0-27.62,0-2.47-1.22-3.66-3.72-3.66-17.13,0-34.26.01-51.39-.03-1.21,0-1.47.39-1.47,1.53.04,9.82.04,19.65,0,29.47,0,1.18.32,1.48,1.49,1.48,17.9-.04,35.81-.03,53.71-.03.41,0,.83,0,1.39,0ZM72.28,122.47c0,13.42.02,26.84-.03,40.26,0,1.19.33,1.49,1.49,1.48,5.1-.06,10.21-.05,15.31,0,.96,0,1.25-.28,1.25-1.25-.02-26.92-.02-53.83,0-80.75,0-1.03-.3-1.32-1.32-1.31-5.06.05-10.13.02-15.19.02q-1.51,0-1.51,1.53c0,13.34,0,26.68,0,40.03ZM68.33,74.99h25.9v-32.37c-.57,0-1.02,0-1.48,0-7.66,0-15.31,0-22.97,0-1.57,0-1.58,0-1.58,1.62,0,9.75,0,19.49,0,29.24,0,.49.07.98.12,1.51ZM93.2,32.07c5.85-4.51,12.18-7.19,18.77-9.34,6.6-2.14,13.37-3.55,20.19-4.64-.13-2.33-1-5.43-2.1-7.56-2.29-4.46-6.04-5.95-10.74-4.24-8.86,3.23-16.89,7.91-24.19,13.89-1.62,1.33-2.58,2.55-2.05,4.84.39,1.69.11,3.54.13,5.32,0,.45,0,.9,0,1.73ZM30.13,18c13.99,2.44,27.48,5.45,39.11,13.85.15-3.2.31-6.2.39-9.2.01-.34-.3-.78-.58-1.03-7.77-6.83-16.5-12.04-26.27-15.48-3.98-1.4-8.46.25-10.21,4.07-1.11,2.41-1.62,5.1-2.44,7.79ZM65.27,36.76c.03-.09.06-.19.09-.28-.22-.2-.41-.43-.65-.61-3.15-2.35-6.64-4.08-10.26-5.55-7.55-3.04-15.41-4.9-23.41-6.25-1.86-.31-1.86-.29-1.94,1.56-.02.42-.08.85-.11,1.27-.18,2.37-.03,4.71.81,6.96.8,2.14,1.94,2.9,4.19,2.9,9.97,0,19.95,0,29.92,0h1.36ZM97.36,36.37c.04.13.09.26.13.39.45,0,.89,0,1.34,0,9.82,0,19.63,0,29.45,0,2.71,0,3.91-.88,4.71-3.48.88-2.83.66-5.72.43-8.61-.05-.65-.36-.78-1.01-.68-6.19.91-12.26,2.32-18.22,4.18-4.91,1.53-9.69,3.37-14.05,6.16-.96.62-1.85,1.36-2.77,2.04ZM87.28,36.71c0-4.25.04-8.38-.02-12.5-.02-1.19-1.1-2.02-2.4-2.03-2.08-.03-4.17,0-6.25,0-2.62,0-3.39.73-3.41,3.35-.03,3.32-.01,6.64,0,9.96,0,.4.09.8.14,1.23h11.95Z"/>
</svg>