<?xml version="1.0" encoding="UTF-8"?>
<svg id="Capa_1" data-name="Capa 1" xmlns="http://www.w3.org/2000/svg" viewBox="0 0 154.25 176.74">
  <defs>
    <style>
      .cls-1 {
        fill: #775c3f;
        stroke-width: 0px;
      }
    </style>
  </defs>
  <path class="cls-1" d="M154.25,48.95c-.23.21-.53.38-.67.63-8.41,15.94-16.8,31.89-25.19,47.84-.08.16-.14.33-.21.49.07.08.14.16.21.23,5.34-4.03,10.69-8.06,16.03-12.08,0-.12-.01-.24-.02-.36-.86-.25-1.71-.52-2.57-.74-.81-.21-1.45-.55-1.51-1.51-.07-1.12.61-1.8,1.8-1.67,2.51.27,4.69,1.35,6.48,3.09,2.62,2.54,3.86,5.64,3.85,9.34-.04,23.4-.02,46.8-.02,70.2,0,6.14-3.91,10.91-9.92,12.11-.9.18-1.84.17-2.76.17-42.33,0-84.66-.03-126.98.05-6.2.01-11.41-4.15-12.45-9.42-.2-1.01-.26-2.05-.26-3.08C.04,140.84.11,117.44,0,94.04c-.04-7.49,6.13-12.64,12.49-12.43,2.14.07,4.29,0,6.43.02,1.33,0,1.96.52,1.98,1.57.02,1.09-.63,1.62-2.02,1.63-2.33,0-4.66-.08-6.99.04-1.28.07-2.55.49-3.82.75-.02.15-.03.3-.05.45,3.73,2.81,7.45,5.62,11.29,8.52.24-.39.44-.67.6-.98,11.81-22.41,23.62-44.83,35.43-67.25,4.39-8.33,8.77-16.67,13.16-25,.78-1.49,1.49-1.7,3.07-.87,11.44,6.02,22.87,12.05,34.31,18.07,15.82,8.33,31.63,16.66,47.45,24.98.28.15.61.21.92.32v5.1ZM70.95,3.78c-.28.48-.51.85-.71,1.23-15.92,30.22-31.85,60.44-47.78,90.65-.36.68-.34,1.05.32,1.54,13.03,9.79,26.04,19.6,39.04,29.43.54.41.9.42,1.44,0,1.93-1.49,3.85-3,5.86-4.38,4.32-2.98,10.19-2.91,14.46.14,1.77,1.27,3.53,2.56,5.22,3.93.83.67,1.38.68,2.25.02,9.89-7.51,19.82-14.96,29.72-22.46.59-.45,1.14-1.07,1.48-1.73,9.11-17.24,18.2-34.49,27.29-51.74.7-1.33,1.38-2.67,2.13-4.13-26.95-14.2-53.79-28.34-80.71-42.52ZM144.4,172.64v-.34c-.39-.31-.78-.64-1.18-.94-20.27-15.28-40.54-30.56-60.82-45.84-4.03-3.04-8.33-3.03-12.35,0-20.36,15.35-40.72,30.7-61.07,46.05-.31.24-.61.5-1.04.85.51.25.85.51,1.22.58,1.19.2,2.4.47,3.6.47,42.36.02,84.72.02,127.08.02.52,0,1.05.06,1.55-.04,1.02-.22,2.01-.52,3.02-.79ZM59.86,129.17c-18.29-13.78-36.39-27.43-54.54-41.12-1.6,1.84-2.16,3.88-2.16,6.12,0,23.33,0,46.65,0,69.98,0,.3-.02.59.02.89.21,1.92.71,3.73,2.17,5.23,18.17-13.7,36.25-27.33,54.52-41.1ZM92.65,129.13c.48.4.83.71,1.21.99,3.74,2.83,7.49,5.65,11.24,8.48,13.75,10.36,27.51,20.72,41.24,31.11.78.59,1.1.37,1.53-.32,1.03-1.65,1.39-3.44,1.39-5.38-.02-23.21-.01-46.42-.02-69.64,0-.52.03-1.04-.03-1.55-.19-1.76-.8-3.33-2.06-4.78-18.18,13.71-36.29,27.36-54.5,41.09Z"/>
  <path class="cls-1" d="M97.28,51.45c1.68-.4,3.2-.88,4.75-1.13,10.4-1.66,20.19,5.01,22.42,15.24,2.18,9.96-3.48,19.95-13.21,23.01-6.2,1.95-12.38,3.91-18.35,6.49-8.13,3.52-15.84,7.77-23.16,12.75-.27.19-.54.39-.84.54-.98.5-1.97.08-2.27-.97-.1-.35-.12-.73-.12-1.09.05-15.31-2.59-30.17-7.42-44.68-3.76-11.32,3.15-23.14,14.84-25.59,10.13-2.12,20.49,4.34,23.04,14.37.09.35.21.7.32,1.07ZM69.78,103.81c.52-.29.9-.48,1.26-.71,5.44-3.51,11.09-6.62,16.96-9.36,7.14-3.33,14.56-5.87,22.09-8.16,9.21-2.81,13.99-12.81,10.55-21.65-3.54-9.1-13.76-13.22-22.57-9.11-2.03.95-3.5.18-3.84-2.01-1.48-9.43-10.7-15.67-20.05-13.56-9.54,2.14-15.13,11.98-12,21.43,4.2,12.68,6.82,25.65,7.37,39.01.05,1.31.16,2.62.25,4.12Z"/>
</svg>