<?xml version="1.0" encoding="UTF-8"?>
<svg id="Capa_1" data-name="Capa 1" xmlns="http://www.w3.org/2000/svg" viewBox="0 0 420.81 436.12">
  <defs>
    <style>
      .cls-1 {
        fill: #ffffff;
        stroke-width: 0px;
      }
    </style>
  </defs>
  <path class="cls-1" d="M0,358.68c.34-1.53.69-3.06,1.02-4.59,2.04-9.58,7.58-16.98,14.72-23.31,11.09-9.84,24.19-16.18,37.89-21.42,20.66-7.9,42.08-12.89,63.89-16.29,8.02-1.25,16.07-2.25,24.11-3.39.52-.07,1.02-.3,1.94-.58-.7-1.05-1.21-1.89-1.78-2.68-15.96-21.95-32.14-43.75-47.82-65.9-12.51-17.67-20.24-37.45-23.04-58.95-6.4-49.2,8.49-91.06,44.63-124.96C136.2,17.25,160.93,5.34,189.05,1.57c54.25-7.26,98.83,10.73,133.23,53.16,14.88,18.35,23.85,39.68,27.51,63.03,6.47,41.26-3.62,78.29-28.73,111.55-14.21,18.82-27.86,38.06-41.76,57.11-.54.74-1.03,1.52-1.88,2.79,2.53.39,4.65.79,6.79,1.04,24.05,2.85,47.77,7.35,70.88,14.72,15.46,4.93,30.4,11.06,43.72,20.57,7,5,13.3,10.75,17.34,18.46,1.96,3.75,3.13,7.91,4.65,11.89v10.11c-.22.39-.57.76-.65,1.18-1.17,6.42-4.12,11.99-8.18,17-7.03,8.67-16.07,14.77-25.82,19.92-17.64,9.33-36.55,15.08-55.88,19.58-29.37,6.84-59.22,10.22-89.29,11.71-21.68,1.07-43.39,1-65.08-.31-18.47-1.11-36.85-2.86-55.14-5.7-23.01-3.58-45.65-8.62-67.44-16.96-13.33-5.1-26.1-11.3-36.99-20.76-7.43-6.45-13.2-14.01-15.33-23.88-.33-1.53-.68-3.06-1.03-4.59,0-1.5,0-3,0-4.49ZM210.47,341.1c.91-1.14,1.51-1.84,2.05-2.58,31.01-42.48,62.12-84.88,92.97-127.47,20.62-28.46,27.49-60.17,20.46-94.61-13.51-66.24-82.11-107.63-147.24-89.14-55.05,15.62-90.77,67.99-85.69,123.97,1.89,20.86,8.46,40.05,20.68,56.99,27.52,38.18,55.39,76.11,83.12,114.14,4.46,6.11,8.93,12.22,13.66,18.7ZM210.46,413.31c21.09-.39,42.07-1.53,63.02-3.81,19.7-2.14,39.2-5.37,58.38-10.33,16.77-4.33,33.19-9.66,48.26-18.45,5.6-3.27,10.92-6.96,14.72-12.37,3.64-5.18,3.84-10.09-.2-14.97-2.94-3.55-6.48-6.79-10.25-9.44-10.34-7.26-22.04-11.8-33.95-15.75-28.06-9.31-57.05-13.92-86.36-16.86-2.16-.22-3.4.56-4.63,2.26-12.8,17.65-25.66,35.26-38.54,52.85-6.06,8.29-14.68,8.21-20.77-.14-12.74-17.46-25.53-34.9-38.17-52.43-1.54-2.14-3.12-2.82-5.62-2.48-7.31.98-14.64,1.76-21.95,2.71-19.19,2.49-38.12,6.27-56.65,11.88-14.53,4.4-28.83,9.47-41.38,18.25-3.92,2.74-7.43,6.29-10.45,10.01-3.42,4.21-3.33,9.2.05,13.48,2.58,3.26,5.57,6.36,8.89,8.85,9.74,7.32,20.91,11.94,32.33,15.91,31.08,10.82,63.31,15.89,95.96,18.5,15.74,1.26,31.56,1.58,47.35,2.33Z"/>
  <path class="cls-1" d="M141.44,140.96c.02-38.25,31.01-69.19,69.27-69.18,38.12.02,68.99,31.15,68.92,69.49-.06,38.12-31.17,68.94-69.54,68.89-37.8-.05-68.68-31.17-68.66-69.21ZM256.39,141.01c0-25.42-20.46-45.98-45.76-45.98-25.27,0-46.04,20.62-46.11,45.79-.07,25.29,20.75,46.14,46.07,46.12,25.35-.02,45.8-20.52,45.8-45.93Z"/>
</svg>